<svg width="604" height="348" viewBox="0 0 604 348" fill="none" xmlns="http://www.w3.org/2000/svg">
<g clip-path="url(#clip0_694_4316)">
<path d="M500.403 298.859H91.0096V18.453C91.0096 9.32677 98.3024 2.00574 107.293 2.00574H484.019C493.11 2.00574 500.403 9.32677 500.403 18.453V298.859Z" fill="white" stroke="black" stroke-width="4" stroke-miterlimit="10" stroke-linecap="round" stroke-linejoin="round"/>
<path d="M493.909 285.721H97.5031V17.8513C97.5031 12.9372 101.399 9.02594 106.294 9.02594H485.018C489.913 9.02594 493.809 12.9372 493.809 17.8513V285.721H493.909Z" fill="white" stroke="black" stroke-width="4" stroke-miterlimit="10" stroke-linecap="round" stroke-linejoin="round"/>
<path d="M393.209 179.516L316.486 43.7256C307.594 28.2812 285.317 28.2812 276.425 43.7256L172.828 223.843C170.431 230.462 190.111 258.643 202.199 258.643H400.003" fill="white"/>
<path d="M393.209 179.516L316.486 43.7256C307.594 28.2812 285.317 28.2812 276.425 43.7256L172.828 223.843C170.431 230.462 190.111 258.643 202.199 258.643H400.003" stroke="black" stroke-width="4" stroke-miterlimit="10" stroke-linecap="round" stroke-linejoin="round"/>
<path d="M578.026 329.948H2.99702L94.3063 296.853H497.206L578.026 329.948Z" fill="black" stroke="black" stroke-width="4" stroke-miterlimit="10" stroke-linecap="round" stroke-linejoin="round"/>
<path d="M307.894 74.8149V111.42C301.501 110.016 294.907 109.515 288.114 110.016V74.8149H307.894Z" fill="black" stroke="black" stroke-width="4" stroke-miterlimit="10" stroke-linecap="round" stroke-linejoin="round"/>
<path d="M579.025 329.948H1.99802V345.994H579.025V329.948Z" fill="white" stroke="black" stroke-width="4" stroke-miterlimit="10" stroke-linecap="round" stroke-linejoin="round"/>
<path d="M602.002 200.576C602.002 165.977 596.008 124.357 549.055 126.463C518.085 127.867 511.392 152.839 511.392 159.458C511.392 166.077 512.491 186.937 530.073 186.937C547.656 186.937 548.755 177.009 548.755 170.39C548.755 163.771 546.557 158.255 536.667 158.255C526.777 158.255 526.777 170.39 532.271 171.493C537.766 172.596 538.865 169.286 535.568 169.286C532.271 169.286 532.171 163.771 536.667 163.771C538.365 163.771 539.564 164.573 540.363 165.576C543.26 169.286 542.161 174.903 537.966 177.009C536.767 177.61 535.268 178.012 533.37 178.012C524.379 178.012 523.68 168.885 523.68 168.885C523.68 168.885 518.984 146.722 544.259 145.017C569.035 143.312 572.032 164.773 572.032 164.773C583.021 220.935 544.559 237.583 525.978 240.491C506.996 243.5 472.83 243.5 427.276 204.387C381.221 164.773 351.95 172.195 337.665 173.799C344.758 164.272 359.343 161.464 359.343 161.464C359.143 161.163 358.943 160.862 358.744 160.561C307.295 77.2219 236.565 139.501 236.565 139.501L183.917 192.353C165.236 212.109 161.44 221.537 161.44 221.537C162.539 238.084 217.384 278.199 238.663 278.199C258.643 278.199 271.53 260.549 271.53 260.549C271.53 260.549 280.322 267.168 272.629 281.409C264.937 295.75 243.059 311.094 243.059 311.094C243.059 311.094 233.168 312.097 233.168 318.716H247.055C247.055 318.916 264.038 318.515 264.038 318.716H303.998C303.998 318.716 305.996 312.197 294.507 311.595L312.589 292.841C312.589 292.841 320.482 281.409 323.579 275.191C324.278 275.592 329.473 279.202 330.172 279.603C340.362 285.22 346.656 286.222 354.148 287.326C344.758 299.561 328.574 310.994 328.574 310.994C328.574 310.994 318.683 310.994 318.683 317.613H362.54C362.54 317.613 362.54 310.994 357.045 310.994L371.331 291.237C371.331 291.237 371.531 291.036 372.03 290.535C412.39 296.452 453.45 294.546 453.45 294.546C454.349 294.647 455.248 294.647 456.147 294.647C455.747 303.171 458.045 309.89 458.045 309.89C458.045 309.89 442.66 310.994 442.66 317.613H486.517C486.517 317.613 486.517 310.994 481.022 310.994L474.629 295.048C566.038 291.839 602.002 244.703 602.002 200.576ZM272.929 312.197C271.53 311.696 269.732 311.395 267.434 311.294L286.116 291.538C286.116 291.538 287.614 290.134 289.812 287.727C283.918 299.862 278.923 311.896 278.923 311.896C278.923 311.896 276.226 311.796 272.929 312.197Z" fill="white" stroke="black" stroke-width="4" stroke-miterlimit="10" stroke-linecap="round" stroke-linejoin="round"/>
<path d="M488.461 271.69C488.917 269.863 486.769 267.75 483.665 266.97C480.56 266.19 477.675 267.038 477.219 268.865C476.764 270.692 478.911 272.805 482.015 273.585C485.12 274.365 488.006 273.517 488.461 271.69Z" fill="#000323"/>
<path d="M512.375 269.068C512.83 267.241 510.683 265.128 507.579 264.348C504.474 263.568 501.588 264.417 501.133 266.244C500.677 268.071 502.825 270.184 505.929 270.964C509.034 271.744 511.919 270.895 512.375 269.068Z" fill="#000323"/>
<path d="M573.332 225.723C575.349 223.229 575.804 220.245 574.348 219.058C572.891 217.871 570.076 218.93 568.059 221.424C566.042 223.918 565.587 226.902 567.043 228.089C568.5 229.276 571.315 228.216 573.332 225.723Z" fill="#000323"/>
<path d="M221.88 227.153C245.328 227.153 264.337 208.07 264.337 184.53C264.337 160.99 245.328 141.908 221.88 141.908C198.431 141.908 179.422 160.99 179.422 184.53C179.422 208.07 198.431 227.153 221.88 227.153Z" fill="white" stroke="black" stroke-width="4" stroke-miterlimit="10" stroke-linecap="round" stroke-linejoin="round"/>
<path d="M191.809 186.035C191.809 202.883 203.298 211.508 213.488 216.723C198.603 214.115 187.314 201.178 187.314 185.533C187.314 167.983 201.5 153.842 218.883 153.842C224.077 153.842 228.873 155.046 233.168 157.252C231.37 156.951 229.572 157.252 227.674 156.75C213.488 153.341 191.809 164.272 191.809 186.035Z" fill="black"/>
<path d="M233.268 197.568C238.455 197.568 242.659 190.428 242.659 181.622C242.659 172.815 238.455 165.676 233.268 165.676C228.082 165.676 223.878 172.815 223.878 181.622C223.878 190.428 228.082 197.568 233.268 197.568Z" fill="black"/>
<path d="M339.163 172.094C339.163 172.094 324.777 194.659 306.795 200.175" stroke="black" stroke-width="4" stroke-miterlimit="10" stroke-linecap="round" stroke-linejoin="round"/>
<path d="M477.406 254.754C478.21 251.53 474.393 247.794 468.88 246.409C463.367 245.023 458.246 246.514 457.442 249.738C456.638 252.962 460.456 256.698 465.969 258.083C471.482 259.469 476.603 257.978 477.406 254.754Z" fill="#000323"/>
<path d="M196.904 257.239C268.933 244.101 342.46 240.491 410.992 256.437C417.685 258.042 424.878 256.938 430.572 252.927C440.063 246.308 443.959 233.571 437.266 222.74L424.179 202.382" stroke="black" stroke-width="4" stroke-miterlimit="10" stroke-linecap="round" stroke-linejoin="round"/>
<path d="M298.503 117.638C294.308 138.799 295.207 160.862 298.503 183.628H278.823C274.028 161.163 275.227 139.3 278.823 118.741C285.416 117.036 291.91 116.836 298.503 117.638Z" fill="black" stroke="black" stroke-width="4" stroke-miterlimit="10" stroke-linecap="round" stroke-linejoin="round"/>
<path d="M290.911 226.551C296.373 226.551 300.801 221.387 300.801 215.018C300.801 208.648 296.373 203.485 290.911 203.485C285.449 203.485 281.021 208.648 281.021 215.018C281.021 221.387 285.449 226.551 290.911 226.551Z" fill="black" stroke="black" stroke-width="4" stroke-miterlimit="10" stroke-linecap="round" stroke-linejoin="round"/>
<path d="M354.618 216.867L353.456 223.452L326.097 218.625L326.685 213.493L347.524 186.389L353.772 187.491L345.251 198.554L334.86 213.38L354.618 216.867ZM355.557 187.806L347.65 232.614L339.741 231.219L347.647 186.411L355.557 187.806ZM383.276 211.832L381.94 219.403C381.335 222.829 380.51 225.709 379.464 228.041C378.418 230.374 377.193 232.221 375.789 233.581C374.41 234.924 372.875 235.828 371.186 236.291C369.5 236.734 367.713 236.789 365.825 236.456C364.328 236.192 362.962 235.718 361.729 235.035C360.499 234.331 359.436 233.403 358.539 232.251C357.666 231.081 356.985 229.671 356.493 228.018C356.023 226.37 355.767 224.463 355.726 222.298C355.709 220.116 355.943 217.65 356.428 214.901L357.764 207.331C358.372 203.884 359.197 201.004 360.24 198.692C361.303 196.383 362.535 194.559 363.935 193.22C365.335 191.88 366.876 190.999 368.558 190.577C370.244 190.134 372.031 190.079 373.918 190.412C375.416 190.676 376.781 191.15 378.015 191.833C379.248 192.516 380.293 193.43 381.148 194.575C382.028 195.703 382.714 197.094 383.205 198.746C383.7 200.378 383.956 202.284 383.973 204.466C383.993 206.628 383.761 209.083 383.276 211.832ZM373.866 219.121L375.609 209.242C375.906 207.56 376.095 206.07 376.176 204.772C376.257 203.475 376.24 202.372 376.125 201.463C376.014 200.534 375.802 199.756 375.49 199.13C375.198 198.507 374.817 198.027 374.347 197.691C373.881 197.334 373.351 197.102 372.756 196.997C371.997 196.863 371.284 196.949 370.616 197.255C369.953 197.539 369.326 198.095 368.736 198.922C368.149 199.728 367.614 200.84 367.132 202.256C366.649 203.673 366.223 205.428 365.854 207.521L364.111 217.399C363.81 219.102 363.618 220.613 363.533 221.93C363.473 223.231 363.497 224.357 363.604 225.307C363.732 226.26 363.94 227.058 364.229 227.701C364.521 228.324 364.9 228.814 365.365 229.171C365.831 229.529 366.372 229.762 366.987 229.87C367.747 230.004 368.46 229.918 369.127 229.613C369.819 229.291 370.449 228.714 371.019 227.884C371.589 227.054 372.106 225.918 372.572 224.477C373.062 223.019 373.493 221.234 373.866 219.121ZM410.45 226.718L409.288 233.304L381.929 228.477L382.518 223.344L403.357 196.241L409.604 197.343L401.083 208.406L390.693 223.232L410.45 226.718ZM411.389 197.658L403.483 242.466L395.574 241.07L403.48 196.262L411.389 197.658Z" fill="#09090B"/>
</g>
<defs>
<clipPath id="clip0_694_4316">
<rect width="604" height="348" fill="white"/>
</clipPath>
</defs>
</svg>
